<?xml version="1.0" standalone="no"?>
<!DOCTYPE svg PUBLIC "-//W3C//DTD SVG 20010904//EN"
 "http://www.w3.org/TR/2001/REC-SVG-20010904/DTD/svg10.dtd">
<svg version="1.0" xmlns="http://www.w3.org/2000/svg"
 width="265.000000pt" height="190.000000pt" viewBox="0 0 265.000000 190.000000"
 preserveAspectRatio="xMidYMid meet">
<metadata>
Created by potrace 1.10, written by Peter Selinger 2001-2011
</metadata>
<g transform="translate(0.000000,190.000000) scale(0.100000,-0.100000)"
fill="#000000" stroke="none">
<path d="M1218 1111 c-18 -21 -59 -88 -90 -148 -53 -101 -57 -112 -48 -145 12
-43 47 -68 92 -68 37 0 64 19 98 68 l23 34 44 -51 45 -51 77 0 c103 0 111 9
111 116 0 45 -6 90 -13 104 -11 21 -11 30 1 57 19 40 2 87 -39 108 -38 20 -47
19 -91 -11 l-37 -26 -31 26 c-22 18 -43 26 -70 26 -32 0 -44 -6 -72 -39z m119
-13 c11 -13 35 -49 53 -82 30 -53 33 -65 31 -132 -1 -46 2 -74 8 -74 22 0 25
54 9 144 -5 31 43 44 76 22 25 -16 26 -21 26 -106 l0 -90 -64 0 c-35 0 -72 3
-81 6 -9 4 -34 40 -57 81 l-40 74 -47 -78 c-38 -65 -51 -79 -74 -81 -33 -4
-67 22 -67 51 0 21 122 247 147 272 21 22 56 18 80 -7z m185 5 c41 -37 3 -111
-50 -98 -50 12 -68 61 -35 97 20 22 61 23 85 1z"/>
</g>
</svg>
